<?xml version="1.0" encoding="utf-8"?>
<!-- Generator: Adobe Illustrator 16.0.0, SVG Export Plug-In . SVG Version: 6.00 Build 0)  -->
<!DOCTYPE svg PUBLIC "-//W3C//DTD SVG 1.1//EN" "http://www.w3.org/Graphics/SVG/1.1/DTD/svg11.dtd">
<svg version="1.1" id="Layer_1" xmlns="http://www.w3.org/2000/svg" xmlns:xlink="http://www.w3.org/1999/xlink" x="0px" y="0px"
	 width="315.5px" height="283.5px" viewBox="0 0 315.5 283.5" enable-background="new 0 0 315.5 283.5" xml:space="preserve">
<g>
	<path fill="#1E63AF" d="M79.419,279.715c1.75-17.269-2.383-32.749-13.967-45.956c-1.408-1.608-2.073-3.14-2.073-5.306
		c0.07-14.237,0.107-28.546,0-42.783c-0.037-2.65,0.757-3.408,3.355-3.373c12.396,0.108,24.773,0,37.15,0.074
		c2.689,0,6.172-0.651,7.742,0.756c1.353,1.19,0.648,4.891,0.595,7.472c-0.09,5.791,1.028,11.348,3.556,16.526
		c7.577,15.374,19.847,23.511,37.169,24.071c18.297,0.542,36.123-12.594,40.238-31.757c0.955-4.423,0.865-9.129,0.919-13.696
		c0.036-2.507,0.56-3.481,3.303-3.446c14.201,0.108,28.364,0.108,42.583,0c2.364-0.035,3.086,0.687,3.086,3.066
		c-0.127,14.544,0,29.106-0.127,43.668c0,1.353-0.614,3.014-1.48,4.042c-9.634,11.097-14.903,23.762-14.724,38.541
		c0.037,2.707,0.182,5.412,0.289,8.101C177.792,279.715,128.605,279.715,79.419,279.715z"/>
	<path fill="#1E63AF" d="M14.3,124.557c0.45-3.102,0.792-6.207,1.369-9.273c3.447-17.847,13.173-31.198,28.889-40.257
		c0.488-0.306,1.101-0.449,1.895-0.773c0,48.48,0,96.676,0,145.431c-10.375-4.943-21.111-6.134-32.117-5.053
		C14.3,184.606,14.3,154.582,14.3,124.557z"/>
	<path fill="#1E63AF" d="M292.1,214.631c-10.971-1.046-21.617,0.036-32.011,5.035c0-48.664,0-96.912,0-145.886
		c3.574,2.419,7.021,4.423,10.087,6.858c11.855,9.563,18.676,22.051,21.022,37.024c0.379,2.311,0.595,4.62,0.901,6.929
		C292.1,154.582,292.1,184.606,292.1,214.631z"/>
	<path fill="#1E63AF" d="M14.3,230.872c3.788,0.251,7.541,0.521,11.295,0.758c19.251,1.01,35.763,17.536,36.809,36.773
		c0.217,3.771,0.469,7.524,0.722,11.294c-13.568,0-27.12,0-40.688,0c-1.931-1.046-4.115-1.805-5.648-3.248
		c-1.246-1.19-1.696-3.247-2.488-4.908C14.3,258.011,14.3,244.441,14.3,230.872z"/>
	<path fill="#1E63AF" d="M243.257,279.715c0.232-3.771,0.521-7.523,0.739-11.276c1.01-19.234,17.556-35.799,36.772-36.809
		c3.789-0.219,7.542-0.489,11.295-0.722c0,13.533,0,27.119,0,40.67c-0.795,1.659-1.228,3.698-2.49,4.908
		c-1.533,1.443-3.716,2.201-5.647,3.247C270.375,279.715,256.807,279.715,243.257,279.715z"/>
	<path fill="#1E63AF" d="M152.91,132.965c-28.654,0-57.323,0-85.942,0c-3.554,0-3.554,0-3.554-3.608
		c0-19.072,0.072-38.145-0.035-57.198c-0.037-2.726,0.9-3.718,3.499-3.789c6.334-0.109,12.631-0.468,18.945-0.468
		c48.537-0.057,97.075-0.039,145.613,0c2.958,0,5.954,0.324,8.877,0.539c1.806,0.108,2.707,0.904,2.707,2.925
		c-0.072,19.702-0.072,39.407,0,59.11c0,2.707-1.553,2.527-3.355,2.527C210.759,132.965,181.834,132.965,152.91,132.965z"/>
	<path fill="#1E63AF" d="M153.217,165.518c-28.743,0-57.469,0-86.212,0c-3.591,0-3.591,0-3.591-3.574c0-3.268,0.072-6.53,0-9.742
		c-0.072-1.732,0.522-2.581,2.345-2.436c0.507,0.052,1.065,0.018,1.624,0.018c57.218,0,114.416,0,171.632,0
		c3.971,0,3.971,0,3.971,3.967c0,2.906-0.108,5.813,0.07,8.661c0.127,2.349-0.612,3.232-3.049,3.141
		c-5.612-0.144-11.204-0.034-16.814-0.034C199.86,165.518,176.547,165.518,153.217,165.518z"/>
	<path fill="#1E63AF" d="M136.958,182.332c7.778,0,7.778,0,7.832,7.725c0.055,5.105,3.393,8.552,8.41,8.552
		c4.979,0,8.354-3.465,8.39-8.552c0.071-7.76,0.071-7.76,7.83-7.76c1.968,0,3.988-0.145,5.936,0.108
		c0.722,0.071,1.877,1.012,1.913,1.588c0.397,9.616-1.117,18.657-9.399,24.973c-7.345,5.665-15.572,6.693-23.981,3.12
		c-8.426-3.553-13.389-10.176-14.291-19.449c-0.307-2.689-0.358-5.379-0.541-8.065c-0.107-1.645,0.578-2.346,2.202-2.274
		C133.152,182.371,135.082,182.332,136.958,182.332z"/>
	<path fill="#1E63AF" d="M145.116,22.448c0.215-4.619,0.197-9.221,0.722-13.787c0.486-3.86,3.571-6.098,7.433-6.062
		c3.717,0.018,6.532,2.274,7.291,5.974c0.307,1.406,0.504,2.85,0.485,4.258c-0.107,7.869-0.034,15.698-0.522,23.529
		c-0.251,3.914-3.445,6.171-7.271,6.189c-3.861,0.018-6.929-2.22-7.38-6.116C145.313,31.813,145.331,27.103,145.116,22.448z"/>
	<path fill="#1E63AF" d="M104.68,18.874c1.785,0.958,3.843,1.571,5.232,2.905c5.433,5.162,10.699,10.468,15.932,15.843
		c3.141,3.247,3.141,7.976,0.145,10.953c-2.958,2.976-7.686,2.94-10.897-0.2c-5.449-5.302-10.791-10.681-16.095-16.093
		c-2.454-2.454-2.763-5.45-1.48-8.518C98.744,20.805,101.198,19.417,104.68,18.874z"/>
	<path fill="#1E63AF" d="M185.822,51.082c-3.284-0.433-5.63-1.84-6.857-4.602c-1.243-2.725-1.281-5.718,0.83-7.903
		c5.721-6.007,11.548-11.925,17.575-17.609c2.761-2.618,7.47-2.058,10.104,0.632c2.562,2.652,3.031,7.271,0.505,9.926
		c-5.737,6.023-11.638,11.871-17.629,17.61C189.232,50.199,187.337,50.452,185.822,51.082z"/>
</g>
</svg>
