<?xml version="1.0" encoding="utf-8"?>
<!-- Generator: Adobe Illustrator 16.0.0, SVG Export Plug-In . SVG Version: 6.00 Build 0)  -->
<!DOCTYPE svg PUBLIC "-//W3C//DTD SVG 1.1//EN" "http://www.w3.org/Graphics/SVG/1.1/DTD/svg11.dtd">
<svg version="1.1" id="Layer_1" xmlns="http://www.w3.org/2000/svg" xmlns:xlink="http://www.w3.org/1999/xlink" x="0px" y="0px"
	 width="315.5px" height="283.5px" viewBox="0 0 315.5 283.5" enable-background="new 0 0 315.5 283.5" xml:space="preserve">
<g>
	<path fill="#EE2C33" d="M110,2.951c1.26,0,2.528,0,3.787,0c2.15,0.661,4.309,1.225,6.404,2.034
		c5.285,2.079,10.517,4.334,15.803,6.387c5.849,2.272,11.803,3.268,18.004,1.497c5.814-1.639,11.636-3.304,17.528-4.649
		c7.102-1.648,14.234-3.234,21.44-4.406c6.854-1.117,8.579,0.688,8.121,7.522c-0.071,1.084-0.176,2.169-0.459,3.216
		c-4.474,17.696-12.823,33.226-25.736,46.227c-0.828,0.838-1.675,1.611-2.714,2.599c1.34,0.635,2.414,1.065,3.418,1.665
		c6.923,4.167,14.216,7.9,20.699,12.701c19.96,14.684,35.992,33.137,49.469,53.793c10.781,16.488,19.29,34.044,23.924,53.353
		c3.047,12.667,4.229,25.476,1.567,38.37c-4.211,20.47-16.788,34.334-35.075,43.478c-15.75,7.875-32.714,11.065-50.102,12.685
		c-4.581,0.423-9.126,0.758-13.707,1.128c-6.685,0-13.38,0-20.066,0c-0.597-0.105-1.213-0.336-1.841-0.37
		c-8.279-0.617-16.603-1.04-24.848-1.886c-17.202-1.813-33.798-5.831-48.992-14.375c-19.811-11.168-31.262-27.905-33.445-50.701
		c-1.788-18.428,2.405-35.903,9.152-52.85c9.522-23.924,23.518-45.064,40.853-64.029c9.566-10.429,20.065-19.792,32.15-27.253
		c2.344-1.446,4.774-2.767,7.144-4.115c-0.184-0.412-0.22-0.633-0.343-0.721c-0.723-0.547-1.462-1.065-2.186-1.603
		c-13.723-10.756-23.271-24.356-27.675-41.294C99.606,11.152,101.79,6.291,110,2.951z M163.67,126.594
		c0-0.668,0.035-2.113-0.018-3.539c-0.053-1.516-0.036-3.083-0.379-4.582c-0.722-3.232-3.408-5.249-6.694-5.213
		c-3.339,0.052-6.078,2.271-6.606,5.628c-0.281,1.859-0.396,3.806-0.229,5.682c0.193,2.343-0.616,3.214-2.994,3.682
		c-7.004,1.375-13.012,4.599-17.749,10.103c-7.277,8.422-7.057,23.881,1.531,30.926c4.943,4.105,10.554,6.555,16.595,8.176
		c2.089,0.563,2.652,1.479,2.634,3.523c-0.114,7.046-0.035,14.094-0.035,21.14c0,0.847,0,1.69,0,2.749
		c-1.029-0.283-1.559-0.354-2.044-0.529c-5.54-2.185-9.265-6.007-11.054-11.804c-1.286-4.104-4.977-6.096-8.605-4.95
		c-3.805,1.181-5.718,4.687-4.58,8.792c2.809,10.11,9.283,17.334,19.087,20.575c5.515,1.832,8.023,3.857,7.408,10.007
		c-0.449,4.404,3.084,7.224,7.108,7.082c3.894-0.211,6.511-3.137,6.642-7.487c0.053-2.147,0.018-4.298,0.018-6.324
		c0.484-0.193,0.67-0.281,0.81-0.3c1.154-0.193,2.326-0.333,3.49-0.545c8.437-1.622,15.643-5.216,20.609-12.616
		c6.344-9.406,4.722-22.865-3.733-30.37c-5.426-4.756-12.051-6.818-18.832-8.525c-1.807-0.46-2.492-1.128-2.433-3.066
		c0.106-6.87,0.036-13.706,0.036-20.611c0.018-0.758,0.105-1.533,0.194-2.484c6.642,1.224,11.733,3.946,13.881,10.693
		c1.304,3.946,4.969,5.708,8.615,4.616c3.575-1.093,5.55-4.704,4.51-8.634c-1.814-6.781-5.726-12.216-11.821-15.502
		C174.31,130.348,169.112,128.771,163.67,126.594z"/>
	<path fill="#FFFFFF" d="M163.67,126.594c5.442,2.177,10.64,3.754,15.361,6.29c6.096,3.286,10.007,8.721,11.821,15.486
		c1.04,3.945-0.935,7.557-4.51,8.649c-3.646,1.092-7.312-0.67-8.615-4.598c-2.147-6.747-7.239-9.452-13.881-10.694
		c-0.089,0.952-0.177,1.728-0.194,2.484c0,6.888,0.07,13.76-0.036,20.629c-0.034,1.921,0.645,2.571,2.433,3.031
		c6.781,1.707,13.406,3.77,18.796,8.525c8.458,7.505,10.077,20.946,3.736,30.37c-4.968,7.4-12.173,10.994-20.612,12.616
		c-1.164,0.212-2.335,0.369-3.488,0.545c-0.142,0.019-0.326,0.106-0.811,0.3c0,2.008,0.035,4.158-0.018,6.324
		c-0.132,4.351-2.748,7.276-6.641,7.487c-4.026,0.16-7.559-2.661-7.11-7.082c0.618-6.149-1.894-8.175-7.416-10.007
		c-9.795-3.241-16.27-10.465-19.079-20.575c-1.118-4.105,0.775-7.611,4.599-8.792c3.619-1.109,7.319,0.864,8.604,4.95
		c1.78,5.797,5.532,9.619,11.057,11.804c0.482,0.211,1.03,0.282,2.043,0.529c0-1.093,0-1.902,0-2.749
		c0-7.046-0.08-14.094,0.035-21.14c0.035-2.044-0.528-2.96-2.633-3.523c-6.044-1.621-11.654-4.087-16.597-8.176
		c-8.57-7.045-8.791-22.504-1.514-30.926c4.737-5.504,10.763-8.711,17.749-10.103c2.378-0.468,3.188-1.339,2.994-3.682
		c-0.168-1.876-0.053-3.822,0.229-5.682c0.528-3.356,3.268-5.576,6.606-5.628c3.286-0.036,5.973,1.98,6.694,5.213
		c0.343,1.499,0.326,3.066,0.379,4.582C163.705,124.48,163.67,125.926,163.67,126.594z M163.67,205.818
		c5.003-0.3,9.284-2.01,11.874-4.704c4.298-4.438,4.176-11.856-0.688-14.956c-3.294-2.044-7.1-3.278-10.975-5.004
		c-0.106,1.356-0.212,1.956-0.212,2.59C163.67,191.02,163.67,198.312,163.67,205.818z M149.523,141.198
		c-2.995,1.544-5.645,2.476-7.831,4.062c-4.492,3.198-5.574,9.874-2.308,13.309c2.687,2.803,6.264,4.018,10.139,5.021
		C149.523,156.227,149.523,149.145,149.523,141.198z"/>
	<path fill="#EE2C33" d="M163.67,205.818c0-7.506,0-14.763,0-22.092c0-0.616,0.105-1.216,0.212-2.607
		c3.875,1.761,7.717,2.96,10.975,5.021c4.863,3.1,4.985,10.517,0.688,14.956C172.936,203.774,168.673,205.519,163.67,205.818z"/>
	<path fill="#EE2C33" d="M149.523,141.198c0,7.946,0,15.028,0,22.392c-3.875-1.004-7.452-2.219-10.139-5.021
		c-3.267-3.435-2.185-10.11,2.308-13.309C143.879,143.674,146.528,142.742,149.523,141.198z"/>
</g>
</svg>
