<?xml version="1.0" encoding="utf-8"?>
<!-- Generator: Adobe Illustrator 16.0.0, SVG Export Plug-In . SVG Version: 6.00 Build 0)  -->
<!DOCTYPE svg PUBLIC "-//W3C//DTD SVG 1.1//EN" "http://www.w3.org/Graphics/SVG/1.1/DTD/svg11.dtd">
<svg version="1.1" id="Capa_1" xmlns="http://www.w3.org/2000/svg" xmlns:xlink="http://www.w3.org/1999/xlink" x="0px" y="0px"
	 width="146px" height="141.095px" viewBox="17.5 21.5 146 141.095" enable-background="new 17.5 21.5 146 141.095"
	 xml:space="preserve">
<ellipse fill="#EE2932" cx="90.5" cy="92.047" rx="66.265" ry="64.682"/>
<g>
	<g>
		<circle fill="#FFFFFF" cx="90.52" cy="65.71" r="15.746"/>
		<path fill="#FFFFFF" d="M106.445,86.723h-0.198l-0.673,8.735c-0.095,1.223-0.986,2.232-2.187,2.477l-5.012,1.02l1.233,3.635
			c0.237,0.701,0.181,1.468-0.157,2.128c0,0-4.864,9.528-6.487,12.702c-0.006,0.012-0.798,1.261-2.386,1.261
			c-1.959,0-2.488-1.252-2.492-1.261c-1.625-3.173-6.49-12.702-6.49-12.702c-0.335-0.66-0.392-1.427-0.156-2.124l1.233-3.635
			l-5.016-1.02c-1.198-0.241-2.092-1.253-2.184-2.474l-0.674-8.74h-0.197c-10.9,0-19.732,8.834-19.732,19.731v22.146
			c0,3.054,2.475,5.528,5.528,5.528h60.201c3.054,0,5.528-2.475,5.528-5.528v-22.204C126.118,95.532,117.312,86.723,106.445,86.723z
			 M113.492,124.56h-4.158v4.085c0,1.513-1.213,2.736-2.723,2.736c-1.511,0-2.722-1.224-2.722-2.736v-4.085h-4.089
			c-1.51,0-2.736-1.209-2.736-2.722c0-1.514,1.227-2.724,2.736-2.724h4.089v-4.16c0-1.514,1.211-2.74,2.722-2.74
			c1.51,0,2.723,1.227,2.723,2.74v4.16h4.158c1.509,0,2.736,1.21,2.736,2.724C116.229,123.351,115.003,124.56,113.492,124.56z"/>
		<path fill="#FFFFFF" d="M94.234,94.202l6.039-1.228l0.482-6.254H80.285l0.481,6.254l6.038,1.228
			c0.772,0.157,1.436,0.637,1.83,1.32c0.392,0.68,0.472,1.498,0.22,2.243l-1.859,5.487l3.524,6.899l3.526-6.899l-1.861-5.487
			c-0.253-0.743-0.173-1.563,0.222-2.243C92.798,94.839,93.465,94.359,94.234,94.202z"/>
	</g>
</g>
</svg>
