<?xml version="1.0" encoding="utf-8"?>
<!-- Generator: Adobe Illustrator 16.0.0, SVG Export Plug-In . SVG Version: 6.00 Build 0)  -->
<!DOCTYPE svg PUBLIC "-//W3C//DTD SVG 1.1//EN" "http://www.w3.org/Graphics/SVG/1.1/DTD/svg11.dtd">
<svg version="1.1" id="Layer_1" xmlns="http://www.w3.org/2000/svg" xmlns:xlink="http://www.w3.org/1999/xlink" x="0px" y="0px"
	 width="66.881px" height="72.79px" viewBox="58.619 47.5 66.881 72.79" enable-background="new 58.619 47.5 66.881 72.79"
	 xml:space="preserve">
<circle fill="#1C62AE" cx="91.021" cy="83.895" r="30.835"/>
<g>
	<path fill-rule="evenodd" clip-rule="evenodd" fill="#FCFCFC" d="M84.321,101.317c-0.716-1.039-1.39-2.012-2.059-2.984
		c-0.296-0.426-0.571-0.866-0.893-1.274c-0.102-0.128-0.318-0.242-0.477-0.233c-1.489,0.074-2.975,0.178-4.461,0.273
		c-0.213,0.013-0.423,0.024-0.719,0.043c2.014-4.101,4-8.148,6.033-12.293c2.383,2.397,5.117,4.027,8.604,4.183
		C88.326,93.159,86.342,97.2,84.321,101.317z"/>
	<path fill-rule="evenodd" clip-rule="evenodd" fill="#FCFCFC" d="M97.718,101.258c-1.966-4.085-3.898-8.104-5.857-12.173
		c3.41-0.233,6.301-1.503,8.728-3.93c1.907,3.966,3.804,7.903,5.74,11.93c-0.868-0.053-1.656-0.097-2.443-0.147
		c-0.929-0.06-1.857-0.138-2.786-0.175c-0.143-0.006-0.341,0.124-0.432,0.251c-0.895,1.272-1.771,2.557-2.655,3.838
		C97.931,100.97,97.845,101.083,97.718,101.258z"/>
	<path fill-rule="evenodd" clip-rule="evenodd" fill="#FCFCFC" d="M104.254,74.001c-0.019,7.159-5.855,12.985-12.999,12.971
		c-7.178-0.016-12.99-5.852-12.979-13.027C78.29,66.818,84.132,60.99,91.253,61C98.445,61.01,104.27,66.836,104.254,74.001z
		 M86.968,80.552c0.325,0.208,0.642,0.131,0.94-0.051c0.817-0.499,1.658-0.968,2.436-1.523c0.608-0.434,1.097-0.408,1.69,0.021
		c0.775,0.56,1.607,1.041,2.423,1.542c0.353,0.216,0.734,0.265,1.082-0.012c0.323-0.259,0.376-0.599,0.27-1.005
		c-0.27-1.001-0.488-2.014-0.755-3.016c-0.12-0.459-0.007-0.781,0.366-1.078c0.843-0.674,1.663-1.372,2.483-2.072
		c0.545-0.468,0.495-0.992-0.122-1.354c-0.156-0.092-0.341-0.164-0.52-0.182c-1.006-0.096-2.014-0.186-3.021-0.248
		c-0.486-0.03-0.769-0.229-0.94-0.699c-0.356-0.988-0.759-1.957-1.154-2.929c-0.229-0.562-0.509-0.746-0.985-0.676
		c-0.432,0.062-0.617,0.388-0.764,0.739c-0.396,0.942-0.782,1.891-1.169,2.838c-0.151,0.369-0.418,0.563-0.82,0.591
		c-1.062,0.072-2.122,0.156-3.184,0.229c-0.672,0.047-1.094,0.454-0.949,0.998c0.072,0.263,0.262,0.527,0.468,0.712
		c0.662,0.596,1.333,1.189,2.05,1.718c0.573,0.426,0.809,0.884,0.499,1.563c-0.074,0.168-0.098,0.358-0.143,0.539
		c-0.208,0.853-0.413,1.704-0.59,2.43C86.507,80.116,86.679,80.366,86.968,80.552z"/>
</g>
</svg>
