<svg width="32px" height="32px" viewBox="0 0 32 32" version="1.1" xmlns="http://www.w3.org/2000/svg" fill="#bbc5ba">
<title>Facebook</title>
<g stroke="none" stroke-width="1" fill-rule="evenodd">
    <g>
        <path d="M25.6666667,24.6360137 C25.6666667,25.2049829 25.2054788,25.6666667 24.6364941,25.6666667 L19.8797,25.6666667 L19.8797,18.4378586 L22.306148,18.4378586 L22.6697084,15.6209777 L19.8797,15.6209777 L19.8797,13.8220382 C19.8797,13.0064647 20.1064803,12.4507155 21.2759754,12.4507155 L22.7678443,12.450207 L22.7678443,9.93026803 C22.5095385,9.89620106 21.6242816,9.81942326 20.5941089,9.81942326 C18.443255,9.81942326 16.9707081,11.1322728 16.9707081,13.5434009 L16.9707081,15.6209777 L14.5381584,15.6209777 L14.5381584,18.4378586 L16.9707081,18.4378586 L16.9707081,25.6666667 L8.03017261,25.6666667 C7.46118784,25.6666667 7,25.2049829 7,24.6360137 L7,8.03065301 C7,7.46117527 7.46118784,7 8.03017261,7 L24.6364941,7 C25.2054788,7 25.6666667,7.46117527 25.6666667,8.03065301 L25.6666667,24.6360137"></path>
    </g>
</g>
</svg>
