<svg width="32px" height="32px" viewBox="0 0 32 32" version="1.1" xmlns="http://www.w3.org/2000/svg" fill="#bbc5ba">
<title>Instagram</title>
<g stroke="none" stroke-width="1" fill-rule="evenodd">
    <g>
        <path d="M15.8333522,6.66666667 C18.4133784,6.66666667 18.7368952,6.67760266 19.7501712,6.7238355 C20.7613354,6.7699552 21.4519243,6.93056341 22.0561943,7.16542322 C22.6809033,7.40816448 23.2106954,7.73300109 23.738866,8.26113397 C24.2669989,8.78930456 24.5918355,9.3190967 24.8346145,9.94380568 C25.0694366,10.5480757 25.2300448,11.2386646 25.2761645,12.2498288 C25.3223973,13.2631048 25.3333333,13.5866216 25.3333333,16.1666855 C25.3333333,18.7467118 25.3223973,19.0702285 25.2761645,20.0835045 C25.2300448,21.0946688 25.0694366,21.7852577 24.8346145,22.3895276 C24.5918355,23.0142366 24.2669989,23.5440288 23.738866,24.0721994 C23.2106954,24.6003322 22.6809033,24.9251689 22.0561943,25.1679478 C21.4519243,25.4027699 20.7613354,25.5633781 19.7501712,25.6094978 C18.7368952,25.6557307 18.4133784,25.6666667 15.8333522,25.6666667 C13.2532882,25.6666667 12.9297715,25.6557307 11.9164955,25.6094978 C10.9053312,25.5633781 10.2147423,25.4027699 9.61047235,25.1679478 C8.98576337,24.9251689 8.45597123,24.6003322 7.92780064,24.0721994 C7.39966775,23.5440288 7.07483115,23.0142366 6.83208989,22.3895276 C6.59723008,21.7852577 6.43662187,21.0946688 6.39050216,20.0835045 C6.34426932,19.0702285 6.33333333,18.7467118 6.33333333,16.1666855 C6.33333333,13.5866216 6.34426932,13.2631048 6.39050216,12.2498288 C6.43662187,11.2386646 6.59723008,10.5480757 6.83208989,9.94380568 C7.07483115,9.3190967 7.39966775,8.78930456 7.92780064,8.26113397 C8.45597123,7.73300109 8.98576337,7.40816448 9.61047235,7.16542322 C10.2147423,6.93056341 10.9053312,6.7699552 11.9164955,6.7238355 C12.9297715,6.67760266 13.2532882,6.66666667 15.8333522,6.66666667 Z M15.8333522,8.37837532 C13.2967305,8.37837532 12.9962548,8.38806687 11.9945181,8.43377177 C11.0682775,8.47600731 10.5652597,8.63077042 10.2305053,8.76087099 C9.78706973,8.9332071 9.47060481,9.13906768 9.13818844,9.47152177 C8.80573435,9.80393815 8.59987377,10.1204031 8.42753766,10.5638386 C8.29743709,10.898593 8.14267398,11.4016108 8.10043843,12.3278514 C8.05473354,13.3295881 8.04504199,13.6300638 8.04504199,16.1666855 C8.04504199,18.7032695 8.05473354,19.0037452 8.10043843,20.0054819 C8.14267398,20.9317225 8.29743709,21.4347403 8.42753766,21.7694947 C8.59987377,22.2129303 8.80577206,22.5293952 9.13818844,22.8618116 C9.47060481,23.1942657 9.78706973,23.4001262 10.2305053,23.5724623 C10.5652597,23.7025629 11.0682775,23.857326 11.9945181,23.8995616 C12.9961416,23.9452665 13.296542,23.954958 15.8333522,23.954958 C18.3701247,23.954958 18.6705627,23.9452665 19.6721486,23.8995616 C20.5983892,23.857326 21.101407,23.7025629 21.4361614,23.5724623 C21.8795969,23.4001262 22.1960619,23.1942657 22.5284782,22.8618116 C22.8609323,22.5293952 23.0667929,22.2129303 23.239129,21.7694947 C23.3692296,21.4347403 23.5239927,20.9317225 23.5662282,20.0054819 C23.6119331,19.0037452 23.6216247,18.7032695 23.6216247,16.1666855 C23.6216247,13.6300638 23.6119331,13.3295881 23.5662282,12.3278514 C23.5239927,11.4016108 23.3692296,10.898593 23.239129,10.5638386 C23.0667929,10.1204031 22.8609323,9.80393815 22.5284782,9.47152177 C22.1960619,9.13906768 21.8795969,8.9332071 21.4361614,8.76087099 C21.101407,8.63077042 20.5983892,8.47600731 19.6721486,8.43377177 C18.6704119,8.38806687 18.3699362,8.37837532 15.8333522,8.37837532 Z M15.8333522,11.2882913 C18.527603,11.2882913 20.7117087,13.472397 20.7117087,16.1666855 C20.7117087,18.8609363 18.527603,21.045042 15.8333522,21.045042 C13.1390637,21.045042 10.954958,18.8609363 10.954958,16.1666855 C10.954958,13.472397 13.1390637,11.2882913 15.8333522,11.2882913 Z M15.8333522,19.3333333 C17.5822432,19.3333333 19,17.9155765 19,16.1666855 C19,14.4177568 17.5822432,13 15.8333522,13 C14.0844235,13 12.6666667,14.4177568 12.6666667,16.1666855 C12.6666667,17.9155765 14.0844235,19.3333333 15.8333522,19.3333333 Z M22.0444664,11.095554 C22.0444664,11.7251653 21.5340574,12.2355366 20.904446,12.2355366 C20.2748724,12.2355366 19.7644634,11.7251653 19.7644634,11.095554 C19.7644634,10.4659426 20.2748724,9.95553359 20.904446,9.95553359 C21.5340574,9.95553359 22.0444664,10.4659426 22.0444664,11.095554 Z" id="Instagram"></path>
    </g>
</g>
</svg>