<svg width="32px" height="32px" viewBox="0 0 32 32" version="1.1" xmlns="http://www.w3.org/2000/svg" fill="#bbc5ba">
    <title>Twitter</title>
    <g stroke="none" stroke-width="1" fill-rule="evenodd">
        <g>
            <path d="M28,9.24229601 C27.1548982,9.62262443 26.2449962,9.87982495 25.2905441,9.99474433 C26.2652462,9.40373038 27.0131479,8.46659019 27.3654986,7.35023049 C26.4528966,7.89746564 25.4444444,8.29557921 24.3671421,8.50900091 C23.5085402,7.58006925 22.2813876,7 20.9232846,7 C18.319129,7 16.2063744,9.14105751 16.2063744,11.7814671 C16.2063744,12.1563232 16.2468744,12.5202345 16.3278746,12.870465 C12.4061161,12.6707242 8.92985854,10.7690821 6.60110348,7.87284006 C6.1947526,8.58150957 5.96255209,9.40373038 5.96255209,10.2793066 C5.96255209,11.9374291 6.7955039,13.4012831 8.06180666,14.2590742 C7.28960498,14.2358167 6.56060339,14.0182907 5.92340201,13.6625879 L5.92340201,13.7214157 C5.92340201,16.0389565 7.55015554,17.9720647 9.71016024,18.4098528 C9.31460938,18.522036 8.89745847,18.5781276 8.46680754,18.5781276 C8.16305688,18.5781276 7.86605623,18.5493977 7.57850561,18.4933061 C8.17925691,20.3922121 9.9207607,21.7753489 11.9862652,21.8122873 C10.3716617,23.0955537 8.33585725,23.8603148 6.12590245,23.8603148 C5.74520162,23.8603148 5.3685508,23.8384254 5,23.7946466 C7.08845454,25.1490536 9.56975993,25.9411765 12.2333157,25.9411765 C20.9138346,25.9411765 25.6590949,18.6561086 25.6590949,12.3369108 C25.6590949,12.1289614 25.6550449,11.921012 25.6469449,11.717167 C26.5689969,11.0426996 27.3695486,10.2013256 28,9.24229601"></path>
        </g>
    </g>
</svg>
