<?xml version="1.0" encoding="utf-8"?>
<!-- Generator: Adobe Illustrator 16.0.0, SVG Export Plug-In . SVG Version: 6.00 Build 0)  -->
<!DOCTYPE svg PUBLIC "-//W3C//DTD SVG 1.1//EN" "http://www.w3.org/Graphics/SVG/1.1/DTD/svg11.dtd">
<svg version="1.1" id="Layer_1" xmlns="http://www.w3.org/2000/svg" xmlns:xlink="http://www.w3.org/1999/xlink" x="0px" y="0px"
	 width="512px" height="512px" viewBox="0 0 512 512" enable-background="new 0 0 512 512" xml:space="preserve">
<path fill="#FFF" d="M187.507,406.205L161.6,431.933c-22.464,22.272-58.982,22.285-81.427,0c-10.791-10.7-16.717-24.922-16.717-40.038
	s5.933-29.344,16.704-40.052l95.36-94.61c19.776-19.597,56.947-48.448,84.044-21.581c12.436,12.352,32.512,12.275,44.864-0.153
	c12.353-12.429,12.275-32.512-0.16-44.864c-46.061-45.696-114.137-37.248-173.427,21.568l-95.36,94.623
	C12.589,329.533,0,359.741,0,391.901s12.595,62.354,35.481,85.068c23.552,23.354,54.464,35.027,85.396,35.027
	c30.938,0,61.869-11.674,85.427-35.046l25.92-25.729c12.435-12.352,12.505-32.429,0.153-44.864
	c-12.339-12.416-32.448-12.492-44.876-0.146L187.507,406.205z M476.506,38.686c-49.473-49.088-118.644-51.75-164.441-6.311
	L279.77,64.439c-12.436,12.339-12.512,32.416-0.16,44.852c12.352,12.435,32.429,12.505,44.864,0.16l32.281-32.032
	c23.726-23.552,54.784-13.792,75.053,6.311c10.816,10.713,16.743,24.94,16.743,40.064c0,15.117-5.939,29.344-16.724,40.051
	L330.086,264.771c-46.527,46.157-68.352,24.493-77.657,15.251c-12.435-12.339-32.512-12.262-44.864,0.166
	c-12.352,12.43-12.275,32.513,0.16,44.865c21.357,21.184,45.734,31.699,71.296,31.699c31.283,0,64.333-15.764,95.757-46.964
	l101.734-100.928C499.392,186.123,512,155.915,512,123.761c0-32.141-12.608-62.355-35.494-85.082V38.686z"/>
</svg>
