<?xml version="1.0" encoding="utf-8"?>
<!-- Generator: Adobe Illustrator 16.0.0, SVG Export Plug-In . SVG Version: 6.00 Build 0)  -->
<!DOCTYPE svg PUBLIC "-//W3C//DTD SVG 1.1//EN" "http://www.w3.org/Graphics/SVG/1.1/DTD/svg11.dtd">
<svg version="1.1" id="Layer_1" xmlns="http://www.w3.org/2000/svg" xmlns:xlink="http://www.w3.org/1999/xlink" x="0px" y="0px"
	 width="66.881px" height="72.79px" viewBox="58.619 47.5 66.881 72.79" enable-background="new 58.619 47.5 66.881 72.79"
	 xml:space="preserve">
<path fill="#EE2932" d="M90.429,54.741c0.74,0,1.48,0,2.222,0c0.17,0.034,0.338,0.079,0.51,0.102
	c1.539,0.213,3.105,0.311,4.616,0.651c6.309,1.421,11.54,4.658,15.636,9.658c4.065,4.961,6.197,10.671,6.387,17.095
	c0.005,0.157,0.058,0.313,0.088,0.472c0,0.247,0,0.493,0,0.739c-0.03,0.157-0.085,0.313-0.087,0.469
	c-0.021,1.784-0.247,3.545-0.639,5.281c-1.262,5.588-3.937,10.396-8.1,14.332c-5.245,4.963-11.493,7.579-18.725,7.808
	c-0.143,0.005-0.284,0.057-0.428,0.087c-0.247,0-0.493,0-0.74,0c-0.143-0.03-0.284-0.085-0.428-0.086
	c-1.785-0.014-3.555-0.209-5.284-0.629c-9.61-2.33-16.362-8.058-20.213-17.166c-1.049-2.481-1.646-5.092-1.871-7.782
	c-0.044-0.525-0.119-1.049-0.18-1.572c0-0.741,0-1.48,0-2.222c0.033-0.156,0.078-0.31,0.099-0.468
	c0.204-1.528,0.284-3.083,0.625-4.579c1.665-7.287,5.605-13.068,11.768-17.29c4.305-2.949,9.096-4.539,14.316-4.804
	C90.146,54.828,90.286,54.773,90.429,54.741z M71.646,75.664c0,0.223,0,0.385,0,0.545c0,2.042-0.002,4.086,0,6.129
	c0.002,1.343,0.005,2.688,0.019,4.031c0.012,1.238,0.109,1.361,1.288,1.739c0.729,0.235,1.462,0.455,2.187,0.706
	c1.049,0.363,1.479,0.212,2.232-0.627c0.488-0.543,1.036-1.07,1.65-1.455c0.987-0.616,2.012-0.537,2.944,0.204
	c0.301,0.238,0.608,0.474,0.874,0.748c1.605,1.669,3.194,3.354,4.798,5.026c0.443,0.461,0.842,1.034,1.387,1.318
	c1.336,0.697,1.937,1.755,1.945,3.212c0.009,0.977,0.526,1.626,1.476,1.839c0.782,0.175,1.646-0.389,1.801-1.178
	c0.128-0.654-0.171-1.164-0.56-1.646c-0.287-0.356-0.562-0.723-0.843-1.084c0.031-0.04,0.063-0.078,0.097-0.118
	c0.151,0.081,0.325,0.137,0.453,0.248c0.538,0.467,1.045,0.972,1.599,1.42c0.521,0.423,1.123,0.493,1.729,0.168
	c0.58-0.312,0.971-0.99,0.791-1.616c-0.13-0.447-0.466-0.845-0.749-1.234c-0.312-0.43-0.679-0.818-1-1.24
	c-0.071-0.093-0.055-0.248-0.079-0.376c0.04-0.02,0.08-0.04,0.12-0.062c0.219,0.217,0.435,0.438,0.657,0.648
	c0.586,0.556,1.146,1.146,1.771,1.654c0.739,0.603,1.514,0.529,2.133-0.11c0.606-0.627,0.626-1.421,0.029-2.147
	c-0.198-0.241-0.435-0.457-0.672-0.662c-0.577-0.501-1.164-0.99-1.737-1.475c0.121-0.429,0.37-0.483,0.687-0.276
	c0.204,0.133,0.398,0.29,0.574,0.459c0.673,0.646,1.313,1.326,2.013,1.939c0.273,0.241,0.654,0.402,1.013,0.493
	c0.925,0.233,1.95-0.797,1.668-1.703c-0.14-0.452-0.398-0.918-0.729-1.255c-2.405-2.461-4.841-4.893-7.269-7.331
	c-0.107-0.106-0.225-0.201-0.336-0.303c-0.449-0.417-0.956-0.508-1.517-0.257c-0.486,0.219-0.973,0.439-1.453,0.672
	c-1.506,0.724-2.997,1.487-4.626,1.899c-0.792,0.2-1.543,0.079-2.231-0.401c-1.656-1.155-1.994-3.934,0.034-5.277
	c1.486-0.984,2.973-1.967,4.458-2.951c0.293-0.194,0.585-0.392,0.883-0.592c-0.055-0.073-0.073-0.113-0.104-0.135
	c-0.057-0.037-0.12-0.065-0.183-0.092c-2.23-0.903-4.411-0.854-6.503,0.393c-0.788,0.469-1.534,1.008-2.294,1.522
	c-1.393,0.942-2.881,1.112-4.464,0.57c-1.798-0.615-3.598-1.229-5.397-1.84C72.047,75.749,71.877,75.721,71.646,75.664z
	 M111.358,75.506c-0.205,0.059-0.348,0.089-0.483,0.138c-1.636,0.59-3.309,1.093-4.893,1.798c-1.616,0.721-2.948,0.456-4.229-0.67
	c-0.606-0.532-1.252-1.032-1.932-1.465c-1.752-1.116-3.606-1.348-5.431-0.246c-2.71,1.634-5.37,3.351-8.04,5.048
	c-0.665,0.424-0.902,1.112-0.725,1.858c0.168,0.704,0.756,1.229,1.488,1.356c0.687,0.118,1.343,0.007,1.962-0.272
	c0.974-0.438,1.934-0.908,2.896-1.374c0.738-0.359,1.472-0.729,2.204-1.101c0.658-0.333,1.243-0.22,1.768,0.278
	c0.298,0.283,0.594,0.569,0.884,0.859c2.386,2.385,4.769,4.771,7.158,7.151c0.359,0.357,0.792,0.515,1.312,0.381
	c1.747-0.451,3.498-0.887,5.243-1.344c0.604-0.158,0.811-0.468,0.811-1.11c0.002-3.578,0.004-7.158,0.007-10.736
	C111.358,75.895,111.358,75.732,111.358,75.506z M80.446,87.703c-1.019,0.001-2.383,1.082-2.716,2.151
	c-0.271,0.869,0.005,1.632,0.801,2.071c0.391,0.217,0.822,0.372,1.247,0.515c0.225,0.076,0.322,0.167,0.358,0.414
	c0.2,1.387,0.664,1.835,2.017,1.99c0.276,0.032,0.417,0.113,0.445,0.445c0.113,1.329,0.72,1.916,2.032,2.013
	c0.232,0.016,0.36,0.07,0.369,0.319c0.004,0.121,0.035,0.243,0.057,0.364c0.165,0.966,0.764,1.555,1.574,1.724
	c1.325,0.276,3.078-1.475,3.09-2.665c0.011-1.06-0.636-1.813-1.844-1.992c-0.466-0.068-0.622-0.252-0.634-0.698
	c-0.021-0.672-0.347-1.182-0.977-1.443c-0.339-0.142-0.698-0.25-1.059-0.312c-0.273-0.047-0.344-0.16-0.376-0.418
	c-0.166-1.277-0.528-1.734-1.711-1.978c-0.541-0.109-0.749-0.319-0.832-0.868C82.128,88.272,81.428,87.703,80.446,87.703z"/>
<path fill-rule="evenodd" clip-rule="evenodd" fill="#FFFFFF" d="M71.646,75.664c0.231,0.057,0.401,0.085,0.563,0.14
	c1.8,0.611,3.6,1.225,5.397,1.84c1.583,0.542,3.071,0.372,4.464-0.57c0.76-0.515,1.506-1.054,2.294-1.522
	c2.092-1.247,4.272-1.296,6.503-0.393c0.062,0.026,0.126,0.055,0.183,0.092c0.031,0.021,0.05,0.062,0.104,0.135
	c-0.298,0.2-0.59,0.397-0.883,0.592c-1.485,0.984-2.972,1.967-4.458,2.951c-2.028,1.344-1.69,4.122-0.034,5.277
	c0.688,0.48,1.439,0.602,2.231,0.401c1.629-0.412,3.12-1.176,4.626-1.899c0.48-0.232,0.967-0.453,1.453-0.672
	c0.561-0.251,1.067-0.16,1.517,0.257c0.111,0.102,0.229,0.196,0.336,0.303c2.428,2.438,4.863,4.87,7.269,7.331
	c0.33,0.337,0.589,0.803,0.729,1.255c0.282,0.906-0.743,1.937-1.668,1.703c-0.358-0.091-0.739-0.252-1.013-0.493
	c-0.699-0.613-1.34-1.294-2.013-1.939c-0.176-0.169-0.37-0.326-0.574-0.459c-0.316-0.207-0.565-0.152-0.687,0.276
	c0.573,0.484,1.16,0.974,1.737,1.475c0.237,0.205,0.474,0.421,0.672,0.662c0.597,0.727,0.577,1.521-0.029,2.147
	c-0.619,0.64-1.394,0.713-2.133,0.11c-0.626-0.509-1.186-1.099-1.771-1.654c-0.223-0.211-0.438-0.432-0.657-0.648
	c-0.04,0.022-0.08,0.043-0.12,0.062c0.024,0.128,0.008,0.283,0.079,0.376c0.321,0.422,0.688,0.811,1,1.24
	c0.283,0.39,0.619,0.787,0.749,1.234c0.18,0.626-0.211,1.304-0.791,1.616c-0.605,0.325-1.207,0.255-1.729-0.168
	c-0.554-0.448-1.061-0.953-1.599-1.42c-0.128-0.111-0.302-0.167-0.453-0.248c-0.033,0.04-0.065,0.078-0.097,0.118
	c0.28,0.361,0.556,0.728,0.843,1.084c0.389,0.482,0.688,0.992,0.56,1.646c-0.155,0.789-1.019,1.353-1.801,1.178
	c-0.949-0.213-1.467-0.862-1.476-1.839c-0.009-1.457-0.609-2.515-1.945-3.212c-0.545-0.284-0.943-0.857-1.387-1.318
	c-1.604-1.673-3.192-3.357-4.798-5.026c-0.266-0.274-0.573-0.51-0.874-0.748c-0.933-0.741-1.957-0.82-2.944-0.204
	c-0.614,0.385-1.162,0.912-1.65,1.455c-0.753,0.839-1.184,0.99-2.232,0.627c-0.725-0.251-1.458-0.471-2.187-0.706
	c-1.179-0.378-1.276-0.501-1.288-1.739c-0.014-1.344-0.017-2.688-0.019-4.031c-0.002-2.043,0-4.087,0-6.129
	C71.646,76.049,71.646,75.887,71.646,75.664z"/>
<path fill-rule="evenodd" clip-rule="evenodd" fill="#FFFFFF" d="M111.358,75.506c0,0.227,0,0.389,0,0.55
	c-0.003,3.578-0.005,7.158-0.007,10.736c0,0.643-0.207,0.952-0.811,1.11c-1.745,0.457-3.496,0.893-5.243,1.344
	c-0.52,0.134-0.952-0.023-1.312-0.381c-2.39-2.38-4.772-4.767-7.158-7.151c-0.29-0.29-0.586-0.576-0.884-0.859
	c-0.524-0.498-1.109-0.611-1.768-0.278c-0.732,0.371-1.466,0.741-2.204,1.101c-0.962,0.466-1.922,0.936-2.896,1.374
	c-0.619,0.279-1.275,0.391-1.962,0.272c-0.732-0.128-1.32-0.652-1.488-1.356c-0.178-0.746,0.06-1.435,0.725-1.858
	c2.67-1.697,5.33-3.414,8.04-5.048c1.824-1.102,3.679-0.87,5.431,0.246c0.68,0.433,1.325,0.933,1.932,1.465
	c1.28,1.126,2.612,1.391,4.229,0.67c1.584-0.705,3.257-1.208,4.893-1.798C111.011,75.595,111.153,75.564,111.358,75.506z"/>
<path fill-rule="evenodd" clip-rule="evenodd" fill="#FFFFFF" d="M80.446,87.703c0.981,0,1.682,0.569,1.843,1.633
	c0.083,0.549,0.291,0.759,0.832,0.868c1.183,0.243,1.545,0.7,1.711,1.978c0.032,0.258,0.103,0.371,0.376,0.418
	c0.36,0.062,0.72,0.17,1.059,0.312c0.63,0.262,0.956,0.771,0.977,1.443c0.012,0.446,0.168,0.63,0.634,0.698
	c1.208,0.179,1.854,0.933,1.844,1.992c-0.012,1.19-1.765,2.941-3.09,2.665c-0.811-0.169-1.409-0.758-1.574-1.724
	c-0.021-0.121-0.053-0.243-0.057-0.364c-0.009-0.249-0.137-0.304-0.369-0.319c-1.312-0.097-1.919-0.684-2.032-2.013
	c-0.028-0.332-0.169-0.413-0.445-0.445c-1.353-0.155-1.816-0.604-2.017-1.99c-0.036-0.247-0.134-0.338-0.358-0.414
	c-0.425-0.143-0.856-0.298-1.247-0.515c-0.796-0.439-1.071-1.202-0.801-2.071C78.063,88.785,79.428,87.704,80.446,87.703z"/>
</svg>
