<?xml version="1.0" encoding="utf-8"?>
<!-- Generator: Adobe Illustrator 16.0.0, SVG Export Plug-In . SVG Version: 6.00 Build 0)  -->
<!DOCTYPE svg PUBLIC "-//W3C//DTD SVG 1.1//EN" "http://www.w3.org/Graphics/SVG/1.1/DTD/svg11.dtd">
<svg version="1.1" id="Capa_1" xmlns="http://www.w3.org/2000/svg" xmlns:xlink="http://www.w3.org/1999/xlink" x="0px" y="0px"
	 width="29.834px" height="40.5px" viewBox="382 466.333 29.834 40.5" enable-background="new 382 466.333 29.834 40.5"
	 xml:space="preserve">
<path fill="#FFFFFF" stroke="#494747" stroke-width="0.5" stroke-miterlimit="10" d="M396.86,466.835
	c-8.104,0.417-11.968,5.081-10.804,13.318c1.38,6.468,9.502,24.845,9.866,25.604c0.107,0.226,0.29,0.365,0.486,0.365
	c0.197,0,0.38-0.14,0.488-0.365c0.362-0.76,9.183-18.708,10.865-25.604C408.976,471.166,405.113,467.252,396.86,466.835z"/>
<g>
	<path fill="#1C62AE" d="M394.107,468.793c0.976-0.322,2.007-0.46,3.03-0.449c-1.065,0.074-2.135,0.252-3.122,0.677
		c-2.04,0.839-3.729,2.496-4.605,4.521c-0.863,1.964-0.95,4.256-0.23,6.28c0.688,1.982,2.134,3.69,3.976,4.698
		c2.185,1.222,4.913,1.407,7.243,0.497c1.751-0.672,3.266-1.937,4.245-3.533c0.802-1.304,1.258-2.824,1.266-4.356
		c0.054,0.246,0.017,0.499,0.011,0.748c-0.101,2.091-0.977,4.131-2.412,5.653c-1.658,1.79-4.075,2.863-6.52,2.852
		c-2.062,0.038-4.123-0.687-5.726-1.982c-1.727-1.379-2.916-3.416-3.253-5.602c-0.358-2.203,0.133-4.535,1.374-6.394
		C390.49,470.713,392.185,469.416,394.107,468.793"/>
	<path fill="#1C62AE" d="M389.667,477.073c0.026-1.274,0.247-2.539,0.578-3.769c0.009,0.378,0.039,0.758-0.006,1.134
		c-0.186,2.114,0.248,4.327,1.44,6.105c0.286,0.423,0.598,0.836,0.988,1.169c-0.649-0.943-1.108-2.006-1.422-3.106
		c-0.074-0.269-0.158-0.538-0.189-0.816c0.76,2.078,2.231,3.912,4.185,4.979c-0.797-0.851-1.571-1.728-2.223-2.696
		c-0.634-0.938-1.206-1.955-1.398-3.084c0.93,1.376,2.332,2.406,3.894,2.958c1.012,0.472,1.841,1.387,2.114,2.479
		c0.209,0.815,0.099,1.68-0.165,2.47c-0.049,0.128-0.076,0.27-0.158,0.381c-1.872-0.16-3.738-0.828-5.18-2.055
		c-0.744-0.64-1.351-1.444-1.754-2.34C389.832,479.691,389.638,478.371,389.667,477.073"/>
	<path fill="#ED2832" d="M404.508,475.787c0.058-0.828-0.127-1.652-0.028-2.48c0.319,1.293,0.575,2.613,0.562,3.951
		c0.021,1.386-0.242,2.798-0.9,4.026c-0.513,0.969-1.275,1.796-2.176,2.415c-1.306,0.9-2.857,1.4-4.425,1.572
		c0.29-0.776,0.481-1.615,0.362-2.447c-0.056-0.468-0.218-0.915-0.438-1.331c0.477-0.751,1.187-1.378,2.034-1.663
		c1.44-0.566,2.727-1.554,3.59-2.842c-0.155,0.953-0.6,1.826-1.103,2.64c-0.715,1.137-1.589,2.162-2.513,3.135
		c1.686-0.916,3.024-2.414,3.833-4.147c0.133-0.268,0.236-0.551,0.357-0.825c-0.278,1.395-0.751,2.764-1.53,3.961
		C403.682,480.185,404.438,477.961,404.508,475.787"/>
	<path fill="#ED2832" d="M396.647,476.501c0.375-0.11,0.801-0.059,1.131,0.158c0.369,0.23,0.609,0.652,0.621,1.087
		c0.019,0.56-0.247,1.117-0.676,1.474c-0.275,0.235-0.674,0.331-1.017,0.202c-0.703-0.291-1.121-1.123-1.009-1.861
		C395.779,477.065,396.169,476.642,396.647,476.501"/>
</g>
</svg>
