<?xml version="1.0" encoding="utf-8"?>
<!-- Generator: Adobe Illustrator 16.0.0, SVG Export Plug-In . SVG Version: 6.00 Build 0)  -->
<!DOCTYPE svg PUBLIC "-//W3C//DTD SVG 1.1//EN" "http://www.w3.org/Graphics/SVG/1.1/DTD/svg11.dtd">
<svg version="1.1" id="Layer_1" xmlns="http://www.w3.org/2000/svg" xmlns:xlink="http://www.w3.org/1999/xlink" x="0px" y="0px"
	 width="1794px" height="173px" viewBox="0 0 1794 173" enable-background="new 0 0 1794 173" xml:space="preserve">
<g>
	<path fill="#F4F4F4" d="M55.901,107.695c-1.05,0-1.468,0.41-1.884,1.672l-11.26,28.651c-2.089,5.225-3.128,10.255-3.128,12.761
		c0,3.751,1.875,6.486,8.345,6.486h3.128c2.497,0,3.128,0.41,3.128,1.674c0,1.668-1.252,2.095-3.546,2.095
		c-6.674,0-15.642-0.64-22.111-0.64c-2.293,0-13.767,0.64-24.608,0.64c-2.711,0-3.964-0.427-3.964-2.095
		c0-1.264,0.836-1.674,2.505-1.674c1.875,0,4.791-0.214,6.461-0.427c9.598-1.242,13.562-8.352,17.73-18.82L79.051,8.366
		C81.548,2.295,82.801,0,84.89,0c1.876,0,3.128,1.875,5.209,6.693c5.012,11.501,38.384,95.156,51.731,126.935
		c7.927,18.823,13.97,21.756,18.351,22.786c3.128,0.638,6.257,0.852,8.764,0.852c1.661,0,2.71,0.213,2.71,1.674
		c0,1.668-1.875,2.095-9.598,2.095c-7.509,0-22.734,0-39.415-0.427c-3.758-0.213-6.256-0.213-6.256-1.668
		c0-1.264,0.826-1.674,2.915-1.888c1.458-0.425,2.925-2.309,1.875-4.813l-16.681-43.066c-0.418-1.066-1.049-1.477-2.089-1.477
		H55.901z M98.442,97.243c1.049,0,1.254-0.622,1.049-1.262L80.714,44.544c-0.205-0.836-0.418-1.886-1.042-1.886
		c-0.621,0-1.039,1.05-1.252,1.886L59.234,95.768c-0.205,0.854,0,1.476,0.834,1.476H98.442z"/>
</g>
<path fill="#F4F4F4" d="M284.817,158.513c-3.333-1.461-3.964-2.506-3.964-7.109c0-11.501,0.836-24.048,1.05-27.391
	c0.203-3.148,0.826-5.441,2.497-5.441c1.875,0,2.089,1.888,2.089,3.557c0,2.719,0.834,7.109,1.874,10.663
	c4.588,15.482,16.896,21.134,29.827,21.134c18.77,0,27.95-12.761,27.95-23.851c0-10.239-3.128-19.874-20.44-33.453l-9.598-7.536
	c-22.938-17.988-30.866-32.624-30.866-49.562C285.234,16.515,304.421,0,333.413,0c13.561,0,22.315,2.089,27.744,3.555
	c1.876,0.42,2.916,1.042,2.916,2.509c0,2.719-0.835,8.778-0.835,25.097c0,4.594-0.623,6.273-2.294,6.273
	c-1.458,0-2.078-1.263-2.078-3.768c0-1.886-1.05-8.362-5.431-13.803c-3.128-3.971-9.171-10.245-22.732-10.245
	c-15.428,0-24.823,8.992-24.823,21.542c0,9.615,4.799,16.938,22.111,30.108l5.84,4.391c25.239,19.038,34.206,33.449,34.206,53.323
	c0,12.14-4.586,26.553-19.606,36.401c-10.424,6.683-22.111,8.566-33.157,8.566C303.169,163.95,293.784,162.493,284.817,158.513z"/>
<path fill="#F4F4F4" d="M527.082,63.561c0-31.78,0-37.634-0.418-44.327c-0.418-7.11-2.087-10.451-8.967-11.917
	c-1.67-0.42-5.217-0.624-8.132-0.624c-2.302,0-3.544-0.426-3.544-1.882c0-1.469,1.456-1.886,4.584-1.886
	c11.058,0,24.191,0.63,30.03,0.63c8.55,0,20.653-0.63,30.234-0.63c26.093,0,35.478,8.782,38.8,11.917
	c4.604,4.392,10.435,13.803,10.435,24.884c0,29.701-21.685,50.604-51.297,50.604c-1.066,0-3.341,0-4.391-0.197
	c-1.047-0.213-2.505-0.426-2.505-1.882c0-1.688,1.458-2.295,5.83-2.295c11.696,0,27.958-13.187,27.958-34.516
	c0-6.896-0.621-20.913-12.317-31.364c-7.5-6.903-16.05-8.156-20.831-8.156c-3.128,0-6.275,0.203-8.141,0.833
	c-1.049,0.419-1.67,1.672-1.67,3.975v83.661c0,19.233,0,35.745,1.03,44.74c0.64,5.848,1.885,10.468,8.141,11.285
	c2.915,0.425,7.501,0.852,10.629,0.852c2.311,0,3.342,0.623,3.342,1.674c0,1.455-1.671,2.095-3.946,2.095
	c-13.775,0-26.91-0.64-32.349-0.64c-4.791,0-17.925,0.64-26.271,0.64c-2.711,0-4.167-0.64-4.167-2.095
	c0-1.051,0.826-1.674,3.332-1.674c3.128,0,5.635-0.427,7.509-0.852c4.169-0.817,5.218-5.438,6.054-11.48
	c1.039-8.8,1.039-25.312,1.039-44.545V63.561z"/>
<path fill="#F4F4F4" d="M756.115,141.378c-20.244-18.2-25.239-42.057-25.239-61.926c0-14.006,4.799-38.463,23.355-57.081
	C766.763,9.832,785.727,0,817.845,0c8.354,0,20.014,0.623,30.252,2.509c7.928,1.466,14.592,2.718,21.258,3.135
	c2.31,0.207,2.719,1.049,2.719,2.302c0,1.672-0.622,4.178-1.048,11.704c-0.41,6.907-0.41,18.407-0.604,21.542
	c-0.213,3.139-0.64,4.391-1.884,4.391c-1.457,0-1.67-1.456-1.67-4.391c0-8.156-3.341-16.725-8.764-21.329
	c-7.305-6.273-23.373-11.917-41.715-11.917c-27.728,0-40.667,8.149-47.974,15.269c-15.231,14.635-18.769,33.246-18.769,54.565
	c0,39.957,30.661,76.555,75.292,76.555c15.66,0,27.959-1.884,36.295-10.468c4.391-4.588,7.092-13.793,7.714-17.562
	c0.41-2.292,0.836-3.127,2.08-3.127c1.048,0,1.458,1.455,1.458,3.127c0,1.455-2.488,19.657-4.586,26.767
	c-1.244,3.98-1.67,4.407-5.403,6.081c-8.354,3.341-24.209,4.798-37.558,4.798C793.654,163.95,772.593,156.2,756.115,141.378z"/>
<path fill="#F4F4F4" d="M1034.139,30.111c2.293-5.857,3.128-6.896,4.391-6.896c1.883,0,2.488,2.505,4.373,6.479
	c3.342,7.526,32.74,80.933,44.008,107.916c6.684,15.888,11.676,18.184,15.643,19.441c2.701,0.837,5.42,1.034,7.303,1.034
	c1.051,0,2.295,0.427,2.295,1.476c0,1.046-2.098,1.473-4.178,1.473c-2.719,0-16.264,0-28.989-0.427
	c-3.555-0.213-6.47-0.213-6.47-1.26c0-0.835,0.427-0.835,1.261-1.262c1.05-0.41,2.915-1.886,1.654-4.801l-16.459-40.772
	c-0.427-0.854-0.64-1.049-1.671-1.049h-42.338c-0.854,0-1.459,0.408-1.885,1.459l-10.415,28.455
	c-1.671,4.371-2.721,8.777-2.721,11.907c0,3.554,3.128,4.801,6.257,4.801h1.653c1.475,0,1.884,0.64,1.884,1.476
	c0,1.046-1.03,1.473-2.701,1.473c-4.372,0-14.398-0.64-16.478-0.64c-1.884,0-11.056,0.64-18.573,0.64
	c-2.275,0-3.538-0.427-3.538-1.473c0-0.836,0.836-1.476,1.671-1.476c1.244,0,3.965-0.197,5.422-0.41
	c8.336-1.049,11.873-7.323,15.428-16.298L1034.139,30.111z M1054.578,104.141c0.836,0,0.836-0.41,0.623-1.264l-18.13-48.718
	c-1.05-2.719-2.097-2.719-3.128,0l-17.1,48.718c-0.213,0.854,0,1.264,0.605,1.264H1054.578z"/>
<path fill="#F4F4F4" d="M1225.102,77.993c0-27.593,0-32.613-0.406-38.267c-0.428-6.06-1.477-8.985-7.521-9.828
	c-1.457-0.204-4.584-0.417-6.256-0.417c-0.621,0-1.457-0.836-1.457-1.458c0-1.05,0.836-1.466,2.916-1.466
	c8.336,0,20.637,0.417,21.703,0.417c1.865,0,17.311-0.417,22.928-0.417c11.695,0,24.617,1.049,34.197,7.739
	c4.604,3.342,12.727,11.917,12.727,24.254c0,13.187-5.404,25.935-22.521,40.559c15.021,18.842,27.746,34.946,38.377,46.021
	c9.811,10.041,15.854,11.71,20.439,12.35c3.555,0.607,5.439,0.607,6.471,0.607s1.67,0.854,1.67,1.476
	c0,1.046-1.049,1.473-4.373,1.473h-11.482c-10.416,0-15.02-1.066-19.604-3.556c-7.928-4.193-14.594-12.759-25.027-26.162
	c-7.73-9.6-15.855-21.116-19.818-25.914c-0.836-0.853-1.244-1.048-2.488-1.048l-23.373-0.41c-0.836,0-1.262,0.41-1.262,1.458v4.178
	c0,17.151,0,30.944,0.854,38.268c0.621,5.224,1.672,8.566,7.287,9.418c2.506,0.41,6.471,0.82,8.141,0.82
	c1.244,0,1.457,0.854,1.457,1.476c0,0.833-0.836,1.473-2.914,1.473c-10.025,0-21.684-0.64-22.537-0.64
	c-0.213,0-12.514,0.64-18.131,0.64c-1.883,0-2.914-0.427-2.914-1.473c0-0.622,0.408-1.476,1.457-1.476c1.67,0,3.945-0.41,5.617-0.82
	c3.555-0.852,3.963-4.194,4.799-9.418c1.047-7.323,1.047-21.329,1.047-38.48V77.993z M1240.939,93.065
	c0,1.034,0.426,1.674,1.262,2.296c2.721,1.457,12.105,2.719,20.246,2.719c4.371,0,9.385-0.214,13.756-3.128
	c6.258-4.195,11.057-13.617,11.057-27.197c0-22.172-12.105-34.925-31.709-34.925c-5.422,0-11.27,0.632-13.137,1.049
	c-0.834,0.416-1.475,1.039-1.475,2.089V93.065z"/>
<path fill="#F4F4F4" d="M1491.146,77.993c0-27.593,0-32.613-0.409-38.267c-0.426-6.06-1.476-8.985-7.519-9.828
	c-1.457-0.204-4.586-0.417-6.257-0.417c-0.621,0-1.457-0.836-1.457-1.458c0-1.05,0.836-1.466,2.915-1.466
	c8.336,0,20.245,0.417,21.276,0.417c1.244,0,39.637,0.213,43.796,0c3.555-0.203,6.896-0.833,8.354-1.046
	c0.818-0.207,1.671-0.836,2.488-0.836c0.64,0,0.854,0.836,0.854,1.679c0,1.253-1.066,3.342-1.477,8.362
	c-0.194,1.673-0.621,9.615-1.047,11.714c-0.214,0.836-0.818,1.876-1.672,1.876c-1.03,0-1.457-0.836-1.457-2.302
	c0-1.253-0.213-4.178-1.031-6.267c-1.243-2.932-3.128-4.185-13.152-5.438c-3.128-0.42-24.387-0.633-26.483-0.633
	c-0.818,0-1.031,0.633-1.031,1.886v48.319c0,1.242,0,1.865,1.031,1.865c2.31,0,26.483,0,30.659-0.41
	c4.392-0.427,7.093-0.64,8.977-2.521c1.245-1.246,2.079-2.292,2.702-2.292c0.64,0,1.048,0.406,1.048,1.473
	c0,1.032-1.048,3.965-1.458,9.811c-0.407,3.556-0.834,10.259-0.834,11.519c0,1.459-0.427,3.341-1.671,3.341
	c-0.836,0-1.244-0.64-1.244-1.669c0-1.672,0-3.554-0.853-5.867c-0.605-2.506-2.275-4.583-9.385-5.436
	c-4.996-0.624-24.601-0.837-27.729-0.837c-1.031,0-1.244,0.623-1.244,1.263v14.842c0,6.061-0.214,26.767,0,30.322
	c0.408,11.927,3.75,14.235,21.898,14.235c4.798,0,13.544,0,18.342-1.882c4.8-2.101,7.306-5.244,8.354-12.354
	c0.408-2.079,0.817-2.719,1.884-2.719c1.031,0,1.244,1.455,1.244,2.719c0,1.262-1.457,13.382-2.507,17.149
	c-1.261,4.605-3.128,4.605-10.219,4.605c-13.758,0-24.405-0.41-31.923-0.623c-7.715-0.427-12.513-0.427-15.215-0.427
	c-0.427,0-3.965,0-7.928,0.213c-3.555,0.214-7.714,0.427-10.629,0.427c-1.884,0-2.915-0.427-2.915-1.473
	c0-0.622,0.408-1.476,1.458-1.476c1.671,0,3.945-0.607,5.616-0.82c3.556-0.639,3.963-4.194,4.8-9.418
	c1.048-7.323,1.048-21.329,1.048-38.48V77.993z"/>
<path fill="#F4F4F4" d="M1721.02,158.513c-2.523-1.247-2.721-1.886-2.721-6.683c0-8.784,0.837-15.894,1.051-18.842
	c0-1.866,0.407-2.914,1.457-2.914c1.031,0,1.671,0.64,1.671,2.095c0,1.459,0,3.965,0.621,6.47
	c2.915,12.978,16.691,17.562,28.99,17.562c18.148,0,27.533-10.238,27.533-23.621c0-12.744-6.879-18.825-23.161-30.943l-8.336-6.274
	c-19.817-14.843-26.287-25.721-26.287-38.058c0-20.919,16.494-33.466,40.667-33.466c7.323,0,14.609,1.046,18.982,2.089
	c3.555,0.843,5.012,0.843,6.47,0.843c1.456,0,1.883,0.203,1.883,1.253c0,0.836-0.833,6.693-0.833,18.823
	c0,2.708-0.214,3.972-1.459,3.972c-1.263,0-1.476-0.836-1.669-2.302c-0.214-2.096-1.673-6.903-2.722-8.789
	c-1.243-2.089-7.286-8.779-23.78-8.779c-13.331,0-24.387,6.69-24.387,19.24c0,11.294,5.616,17.781,23.782,30.118l5.209,3.555
	c22.304,15.248,30.019,27.604,30.019,42.871c0,10.452-3.946,21.756-17.1,30.32c-7.712,5.015-19.194,6.259-29.184,6.259
	C1739.149,163.311,1728.521,162.066,1721.02,158.513z"/>
</svg>
