<?xml version="1.0" encoding="utf-8"?>
<!-- Generator: Adobe Illustrator 16.0.0, SVG Export Plug-In . SVG Version: 6.00 Build 0)  -->
<!DOCTYPE svg PUBLIC "-//W3C//DTD SVG 1.1//EN" "http://www.w3.org/Graphics/SVG/1.1/DTD/svg11.dtd">
<svg version="1.1" id="Layer_1" xmlns="http://www.w3.org/2000/svg" xmlns:xlink="http://www.w3.org/1999/xlink" x="0px" y="0px"
	 width="1660px" height="156px" viewBox="0 0 1660 156" enable-background="new 0 0 1660 156" xml:space="preserve">
<path fill="#FFFFFF" d="M19.426,134.015l87.012,0.158l-0.033,19.101L0,153.08L0.284,0l19.389,0.037L19.426,134.015z M1165.585,2.025
	l-19.386-0.031l-0.284,153.082l106.445,0.188l0.037-19.1l-87.059-0.155L1165.585,2.025z M1369.222,2.393l-19.347-0.034
	l-0.284,153.082l106.449,0.188l0.035-19.098l-87.101-0.157L1369.222,2.393z M271.88,0.431l-68.369,153.082l20.721,0.037
	l56.979-127.581l56.513,127.783l20.722,0.04l-67.8-153.329L271.88,0.431z M936.571,154.706l106.402,0.194l0.035-19.104
	l-87.017-0.157l0.089-47.751l74.174,0.134l0.034-19.127l-74.174-0.134l0.089-47.977l87.017,0.158l0.04-19.127L936.853,1.623
	L936.571,154.706z M833.735,108.178c-0.052,26.04-19.977,46.299-44.492,46.251l-72.983-0.11l0.283-153.042l57.891,0.087
	c24.474,0.044,44.325,18.152,44.287,40.341c-0.016,7.659-2.077,18.728-8.972,25.982C825.29,75.391,833.765,91.378,833.735,108.178z
	 M735.858,60.86l38.466,0.052c13.801,0.024,24.653-7.509,24.677-20.292c0.025-13.028-10.804-20.028-24.602-20.051l-38.463-0.05
	L735.858,60.86z M814.011,107.545c0.031-15.747-10.995-27.419-24.631-27.442l-53.553-0.076l-0.104,55.205l53.558,0.076
	C802.91,135.332,813.985,123.293,814.011,107.545z M1659.959,22.042L1660,2.918l-106.442-0.194l-0.284,153.084l106.44,0.192
	l0.037-19.104l-87.057-0.155l0.094-47.754l74.171,0.135l0.031-19.127l-74.173-0.134l0.091-47.979L1659.959,22.042z M579.592,119.943
	L476.139,0.88l-20.385-0.04l-0.284,153.043l19.137,0.034l0.233-126.115l110.064,126.314l14.179,0.029l0.285-153.043l-19.555-0.034
	L579.592,119.943z"/>
</svg>
