<?xml version="1.0" encoding="utf-8"?>
<!-- Generator: Adobe Illustrator 16.0.0, SVG Export Plug-In . SVG Version: 6.00 Build 0)  -->
<!DOCTYPE svg PUBLIC "-//W3C//DTD SVG 1.1//EN" "http://www.w3.org/Graphics/SVG/1.1/DTD/svg11.dtd">
<svg version="1.1" id="Layer_1" xmlns="http://www.w3.org/2000/svg" xmlns:xlink="http://www.w3.org/1999/xlink" x="0px" y="0px"
	 width="1401px" height="134px" viewBox="129.5 11 1401 134" enable-background="new 129.5 11 1401 134" xml:space="preserve">
<path fill="#FFFFFF" d="M145.895,126.116l73.436,0.135l-0.028,16.407l-89.803-0.166L129.74,11l16.364,0.032L145.895,126.116z
	 M1113.226,12.739l-16.361-0.026l-0.239,131.493l89.836,0.161l0.031-16.405l-73.475-0.134L1113.226,12.739z M1285.09,13.056
	l-16.328-0.029l-0.239,131.494l89.84,0.161l0.03-16.405l-73.512-0.135L1285.09,13.056z M358.96,11.37l-57.701,131.494l17.487,0.031
	l48.089-109.589l47.695,109.763l17.489,0.034L374.798,11.397L358.96,11.37z M919.943,143.889l89.801,0.167l0.029-16.41
	l-73.439-0.136l0.074-41.016l62.602,0.114l0.028-16.429l-62.601-0.116l0.075-41.21l73.439,0.136l0.034-16.43l-89.805-0.165
	L919.943,143.889z M833.152,103.922c-0.044,22.368-16.86,39.77-37.55,39.729l-61.596-0.096l0.239-131.459l48.858,0.075
	c20.656,0.038,37.409,15.592,37.377,34.652c-0.013,6.579-1.753,16.087-7.572,22.318C826.025,75.759,833.178,89.491,833.152,103.922z
	 M750.547,63.277l32.464,0.045c11.648,0.021,20.806-6.45,20.827-17.43c0.021-11.191-9.118-17.204-20.763-17.224l-32.462-0.042
	L750.547,63.277z M816.505,103.378c0.026-13.526-9.28-23.552-20.788-23.571l-45.197-0.065l-0.088,47.42l45.202,0.065
	C807.137,127.247,816.484,116.905,816.505,103.378z M1530.465,29.934l0.035-16.427l-89.835-0.167l-0.239,131.496l89.833,0.164
	l0.031-16.409l-73.475-0.134l0.08-41.021l62.599,0.117l0.025-16.43l-62.601-0.115l0.077-41.213L1530.465,29.934z M618.662,114.028
	L531.35,11.756l-17.204-0.035l-0.24,131.46l16.152,0.029l0.196-108.33l92.892,108.501l11.967,0.024l0.241-131.459l-16.505-0.029
	L618.662,114.028z"/>
</svg>
