<?xml version="1.0" encoding="utf-8"?>
<!-- Generator: Adobe Illustrator 16.0.0, SVG Export Plug-In . SVG Version: 6.00 Build 0)  -->
<!DOCTYPE svg PUBLIC "-//W3C//DTD SVG 1.1//EN" "http://www.w3.org/Graphics/SVG/1.1/DTD/svg11.dtd">
<svg version="1.1" id="Capa_1" xmlns="http://www.w3.org/2000/svg" xmlns:xlink="http://www.w3.org/1999/xlink" x="0px" y="0px"
	 width="146px" height="141.095px" viewBox="17.5 21.5 146 141.095" enable-background="new 17.5 21.5 146 141.095"
	 xml:space="preserve">
<ellipse fill="#EE2932" cx="90.5" cy="92.047" rx="66.265" ry="64.682"/>
<g>
	<path fill="#FFFFFF" d="M71.841,99.097l3.106-0.844c2.343-0.625,4.747-1.269,6.688-1.891c-1.467-2.244-2.784-4.801-3.872-7.505
		c-0.688-0.601-1.323-1.31-1.895-2.118c-1.033-1.415-1.797-3.11-2.262-5.014c-0.279-1.183-0.417-2.362-0.417-3.513
		c0.014-2.126,0.443-4.022,1.288-5.654c0.201-3.964,1.291-7.698,3.045-10.981c-2.06-1.525-4.54-2.424-7.218-2.428
		c-6.981,0.009-12.683,6.124-12.834,13.731c-0.523,0.815-0.801,1.846-0.804,3.031c0,0.585,0.067,1.18,0.211,1.762
		c0.229,0.954,0.61,1.803,1.121,2.504c0.374,0.526,0.798,0.961,1.25,1.275c1.001,2.649,2.355,5.027,3.879,6.824
		c0,0.02,0,0.04-0.001,0.061c-0.004,0.04-0.004,0.097-0.009,0.164c-0.278,0.17-0.763,0.413-1.514,0.669
		c-1.385,0.504-3.304,1.022-5.341,1.571l-1.945,0.525c-3.117,0.917-6.861,3.937-7.009,13.164c-0.003,0.103,0,0.212,0.003,0.316
		l0.016,0.327l0.068,1.317l1.239,0.452l0.306,0.107c3.581,1.311,7.592,2.248,11.857,2.814
		C63.416,103.113,67.893,100.262,71.841,99.097z M122.685,102.19c-1.024-0.285-2.032-0.556-3.007-0.822
		c-3.172-0.846-6.167-1.651-8.369-2.454c-1.144-0.393-1.891-0.774-2.322-1.039c-0.003-0.068-0.003-0.134-0.009-0.183
		c0-0.056,0-0.107-0.003-0.163c2.383-2.812,4.496-6.528,6.074-10.668c0.708-0.51,1.359-1.171,1.928-1.972
		c0.812-1.126,1.421-2.487,1.768-3.952c0.214-0.911,0.323-1.827,0.323-2.743c-0.01-1.84-0.439-3.448-1.26-4.731
		c-0.198-11.846-9.096-21.439-20.067-21.451c-10.907,0.012-19.822,9.569-20.057,21.455c-0.816,1.279-1.25,2.887-1.258,4.743
		c0,0.912,0.111,1.84,0.332,2.751c0.36,1.486,0.956,2.814,1.752,3.911c0.583,0.825,1.25,1.5,1.95,1.999
		c1.571,4.135,3.683,7.849,6.062,10.659c0,0.031,0,0.064-0.004,0.096c-0.003,0.067-0.009,0.153-0.012,0.257
		c-0.434,0.267-1.192,0.647-2.365,1.05c-2.164,0.786-5.164,1.595-8.345,2.447l-3.041,0.825c-4.87,1.436-10.722,6.148-10.954,20.572
		c-0.005,0.158,0,0.33,0.007,0.492l0.026,0.509l0.102,2.059l1.935,0.702l0.479,0.174c9.608,3.514,21.161,5.373,33.4,5.373
		c12.243,0,23.789-1.856,33.398-5.373l0.502-0.186l1.997-0.733l0.034-2.127l0.012-0.583v-0.452
		C133.444,108.337,127.601,103.632,122.685,102.19z"/>
</g>
</svg>
