<?xml version="1.0" encoding="utf-8"?>
<!-- Generator: Adobe Illustrator 16.0.0, SVG Export Plug-In . SVG Version: 6.00 Build 0)  -->
<!DOCTYPE svg PUBLIC "-//W3C//DTD SVG 1.1//EN" "http://www.w3.org/Graphics/SVG/1.1/DTD/svg11.dtd">
<svg version="1.1" id="Capa_1" xmlns="http://www.w3.org/2000/svg" xmlns:xlink="http://www.w3.org/1999/xlink" x="0px" y="0px"
	 width="146px" height="141.095px" viewBox="17.5 21.5 146 141.095" enable-background="new 17.5 21.5 146 141.095"
	 xml:space="preserve">
<ellipse fill="#EE2932" cx="88.765" cy="91.182" rx="66.265" ry="64.682"/>
<g>
	<g>
		<path fill="#FFFFFF" d="M77.835,107.845l0.806-4.109c1.56-7.971,5.64-18.825,16.219-25.268l4.076-2.479L73.889,60.667
			c-2.998-1.837-6.439-2.808-9.946-2.808c-6.711,0-12.807,3.415-16.304,9.129c-5.492,8.981-2.654,20.757,6.326,26.252
			L77.835,107.845z M52.608,70.028c2.428-3.974,6.669-6.347,11.334-6.347c2.433,0,4.822,0.675,6.91,1.95l17.187,10.516
			c-8.271,6.593-12.252,15.585-14.162,22.448L56.999,88.273C50.758,84.454,48.788,76.269,52.608,70.028z"/>
		<path fill="#FFFFFF" d="M125.689,93.26l-22.391-13.699l-0.415,0.177c-2.611,1.117-4.854,2.51-6.835,4.06l21.563,13.164
			c0.816,0.501,1.075,1.566,0.573,2.382c-0.324,0.535-0.895,0.831-1.478,0.831c-0.307,0-0.618-0.08-0.903-0.253
			c0,0-22.118-13.657-22.258-13.951c-7.908,7.721-10.118,18.246-10.721,23.283l-0.067,0.556l23.877,14.6
			c2.869,1.757,6.158,2.683,9.509,2.683c6.418,0,12.244-3.265,15.59-8.73C136.988,109.773,134.274,98.513,125.689,93.26z"/>
	</g>
</g>
</svg>
