<?xml version="1.0" encoding="utf-8"?>
<!-- Generator: Adobe Illustrator 16.0.0, SVG Export Plug-In . SVG Version: 6.00 Build 0)  -->
<!DOCTYPE svg PUBLIC "-//W3C//DTD SVG 1.1//EN" "http://www.w3.org/Graphics/SVG/1.1/DTD/svg11.dtd">
<svg version="1.1" id="Layer_1" xmlns="http://www.w3.org/2000/svg" xmlns:xlink="http://www.w3.org/1999/xlink" x="0px" y="0px"
	 width="66.881px" height="72.79px" viewBox="58.619 47.5 66.881 72.79" enable-background="new 58.619 47.5 66.881 72.79"
	 xml:space="preserve">
<circle fill="#ED2832" cx="91.455" cy="84.455" r="30.835"/>
<g>
	<g opacity="0.5">
		<path fill="#FFFFFF" d="M83.108,82.755c-3.399,5.332-8.269,13.369-8.269,16.616c0,5.023,5.023,5.023,5.023,5.023h11.67l0,0h11.668
			c0,0,5.023,0,5.023-5.023c0-3.246-4.868-11.284-8.268-16.616H83.108z"/>
	</g>
	<path fill="#FFFFFF" d="M96.401,77.731V66.139h1.701v-1.7h-1.701l0,0h-5.022l0,0h-5.024l0,0h-1.7v1.7h1.7v11.668
		c0,0-11.67,16.618-11.67,21.64c0,5.023,5.024,5.023,5.024,5.023h11.67l0,0h11.669c0,0,5.023,0,5.023-5.023
		C108.071,94.425,96.401,77.731,96.401,77.731z M103.125,102.694h-11.67h-11.67c-0.542,0-3.323-0.154-3.323-3.323
		c0-3.246,6.956-14.375,11.36-20.635l0.309-0.464v-0.541V66.139h6.646v11.668v0.542l0.309,0.464
		c4.406,6.261,11.362,17.389,11.362,20.635C106.449,102.384,103.898,102.694,103.125,102.694z"/>
	<path fill="#FFFFFF" d="M84.81,94.348c0.938,0,1.7,0.761,1.7,1.698c0,0.939-0.762,1.703-1.7,1.703s-1.701-0.764-1.701-1.703
		C83.108,95.108,83.871,94.348,84.81,94.348z"/>
	<path fill="#FFFFFF" d="M89.755,86.077c1.834,0,3.324,1.488,3.324,3.323c0,1.837-1.49,3.324-3.324,3.324
		c-1.835,0-3.323-1.487-3.323-3.324C86.432,87.565,87.921,86.077,89.755,86.077z"/>
	<path fill="#FFFFFF" d="M96.401,92.725c1.836,0,3.322,1.485,3.322,3.321c0,1.835-1.486,3.325-3.322,3.325s-3.322-1.49-3.322-3.325
		C93.079,94.21,94.565,92.725,96.401,92.725z"/>
</g>
</svg>
