<?xml version="1.0" encoding="utf-8"?>
<!-- Generator: Adobe Illustrator 16.0.0, SVG Export Plug-In . SVG Version: 6.00 Build 0)  -->
<!DOCTYPE svg PUBLIC "-//W3C//DTD SVG 1.1//EN" "http://www.w3.org/Graphics/SVG/1.1/DTD/svg11.dtd">
<svg version="1.1" id="Layer_1" xmlns="http://www.w3.org/2000/svg" xmlns:xlink="http://www.w3.org/1999/xlink" x="0px" y="0px"
	 width="66.881px" height="72.79px" viewBox="58.619 47.5 66.881 72.79" enable-background="new 58.619 47.5 66.881 72.79"
	 xml:space="preserve">
<path fill="#1C62AF" d="M91.297,54.173c0.74,0,1.48,0,2.222,0c0.17,0.034,0.338,0.079,0.51,0.102
	c1.539,0.213,3.105,0.311,4.616,0.651c6.309,1.421,11.54,4.658,15.636,9.658c4.065,4.961,6.197,10.671,6.387,17.095
	c0.005,0.157,0.058,0.313,0.088,0.472c0,0.247,0,0.493,0,0.739c-0.03,0.157-0.085,0.313-0.087,0.469
	c-0.021,1.784-0.247,3.545-0.639,5.281c-1.262,5.588-3.937,10.396-8.1,14.332c-5.245,4.963-11.493,7.579-18.725,7.808
	c-0.143,0.005-0.284,0.057-0.428,0.087c-0.247,0-0.493,0-0.74,0c-0.143-0.03-0.284-0.085-0.428-0.086
	c-1.785-0.014-3.555-0.209-5.284-0.629c-9.61-2.33-16.362-8.058-20.213-17.166c-1.049-2.481-1.646-5.092-1.871-7.782
	c-0.044-0.525-0.119-1.049-0.18-1.572c0-0.741,0-1.48,0-2.222c0.033-0.156,0.078-0.31,0.099-0.468
	c0.204-1.528,0.284-3.083,0.625-4.579c1.665-7.287,5.605-13.068,11.768-17.29c4.305-2.949,9.096-4.539,14.316-4.804
	C91.014,54.26,91.154,54.206,91.297,54.173z"/>
<g>
	<path fill-rule="evenodd" clip-rule="evenodd" fill="#FFFFFF" d="M93.692,84.445c-0.06-0.874-0.118-1.699-0.168-2.525
		c-0.125-2.067-0.255-4.134-0.363-6.202c-0.048-0.948,0.621-1.607,1.507-1.501c0.644,0.077,0.99,0.497,1.187,1.092
		c0.73,2.207,1.527,4.398,2.19,6.627c0.502,1.691,0.849,3.431,1.239,5.152c0.353,1.554,0.653,3.118,1.006,4.672
		c0.215,0.944,0.757,1.68,1.596,2.179c1.522,0.904,3.049,1.802,4.573,2.702c0.771,0.454,0.873,0.954,0.336,1.675
		c-0.912,1.225-1.824,2.448-2.737,3.67c-0.47,0.626-0.932,0.695-1.57,0.244c-0.5-0.354-0.998-0.712-1.501-1.063
		c-0.747-0.525-1.575-0.784-2.492-0.779c-0.571,0.001-1.149-0.05-1.715,0.008c-1.54,0.158-3.432-1.207-3.771-3.203
		c-0.071-0.429-0.073-0.87-0.074-1.302c-0.006-2.986,0.026-5.973-0.011-8.955c-0.013-1.063,1.031-1.383,1.716-1.098
		c0.437,0.184,0.636,0.522,0.635,0.996c-0.006,1.435,0.001,2.862-0.006,4.297c0,0.352,0.114,0.616,0.462,0.73
		c0.379,0.126,0.795-0.154,0.798-0.583c0.014-1.623,0.041-3.246-0.019-4.864c-0.036-1.062-1.097-1.904-2.313-1.968
		C94.038,84.438,93.879,84.445,93.692,84.445z"/>
	<path fill-rule="evenodd" clip-rule="evenodd" fill="#FFFFFF" d="M91.31,84.404c-0.346,0.037-0.657,0.051-0.962,0.104
		c-1.189,0.212-1.944,1.12-1.944,2.313c-0.001,1.46-0.006,2.919,0.003,4.376c0.001,0.414,0.289,0.7,0.649,0.688
		c0.353-0.01,0.596-0.277,0.613-0.679c0.006-0.109,0.001-0.22,0.001-0.33c0-1.32-0.001-2.644,0.003-3.965
		c0-0.593,0.197-0.898,0.683-1.085c0.502-0.193,1.126-0.087,1.43,0.299c0.13,0.168,0.229,0.413,0.231,0.626
		c0.014,3.285,0.023,6.571,0,9.854c-0.013,1.769-1.322,3.351-3.053,3.736c-0.338,0.077-0.704,0.034-1.059,0.043
		c-0.692,0.018-1.389,0.008-2.08,0.062c-0.681,0.054-1.282,0.344-1.837,0.737c-0.531,0.379-1.064,0.759-1.605,1.126
		c-0.503,0.342-0.998,0.265-1.361-0.218c-0.974-1.298-1.944-2.597-2.905-3.901c-0.421-0.571-0.306-1.113,0.313-1.479
		c1.531-0.912,3.069-1.82,4.604-2.729c0.946-0.56,1.496-1.38,1.723-2.461c0.604-2.876,1.149-5.769,1.894-8.61
		c0.576-2.206,1.411-4.347,2.135-6.514c0.127-0.389,0.253-0.777,0.387-1.163c0.263-0.761,0.881-1.148,1.603-1.008
		c0.654,0.123,1.107,0.729,1.066,1.485c-0.14,2.436-0.296,4.869-0.447,7.305C91.365,83.479,91.339,83.94,91.31,84.404z"/>
	<path fill-rule="evenodd" clip-rule="evenodd" fill="#FFFFFF" d="M106.696,80.22c1.051,0,2.099-0.001,3.15,0.003
		c0.162,0.001,0.373-0.03,0.475,0.056c0.178,0.153,0.388,0.378,0.395,0.58c0.007,0.181-0.219,0.393-0.385,0.548
		c-0.081,0.073-0.258,0.054-0.394,0.054c-2.168,0.003-4.335,0.003-6.504,0.003c-0.122,0-0.247-0.003-0.365-0.027
		c-0.3-0.065-0.482-0.253-0.491-0.568c-0.009-0.331,0.162-0.542,0.481-0.617c0.117-0.026,0.244-0.03,0.366-0.03
		C104.515,80.22,105.605,80.22,106.696,80.22z"/>
	<path fill-rule="evenodd" clip-rule="evenodd" fill="#FFFFFF" d="M78.193,81.463c-1.078,0-2.155,0-3.229-0.003
		c-0.15,0-0.304-0.006-0.445-0.047c-0.282-0.076-0.421-0.285-0.418-0.578c0.002-0.294,0.145-0.496,0.431-0.569
		c0.154-0.04,0.323-0.042,0.483-0.042c2.114-0.004,4.226-0.004,6.339,0c0.148,0,0.302,0,0.446,0.035
		c0.307,0.067,0.509,0.299,0.449,0.583c-0.043,0.212-0.25,0.415-0.433,0.568c-0.092,0.077-0.286,0.05-0.436,0.05
		C80.318,81.463,79.257,81.463,78.193,81.463z"/>
	<path fill-rule="evenodd" clip-rule="evenodd" fill="#FFFFFF" d="M92.997,66.641c0,1.089,0.001,2.181-0.002,3.271
		c0,0.507-0.229,0.787-0.628,0.772c-0.383-0.011-0.589-0.276-0.591-0.769c0-2.209,0-4.419,0-6.626
		c0.002-0.514,0.226-0.782,0.63-0.771c0.386,0.012,0.589,0.271,0.589,0.769C92.997,64.404,92.997,65.523,92.997,66.641z"/>
	<path fill-rule="evenodd" clip-rule="evenodd" fill="#FFFFFF" d="M105.642,68.271c-0.13,0.218-0.196,0.404-0.322,0.531
		c-1.595,1.605-3.195,3.206-4.799,4.804c-0.299,0.297-0.649,0.312-0.907,0.067c-0.275-0.26-0.268-0.624,0.046-0.938
		c1.598-1.603,3.199-3.202,4.799-4.802c0.21-0.211,0.465-0.334,0.732-0.166C105.367,67.878,105.483,68.088,105.642,68.271z"/>
	<path fill-rule="evenodd" clip-rule="evenodd" fill="#FFFFFF" d="M79.839,67.611c0.229,0.137,0.413,0.206,0.541,0.331
		c1.606,1.595,3.206,3.195,4.805,4.799c0.285,0.287,0.303,0.66,0.064,0.912c-0.254,0.266-0.627,0.254-0.936-0.055
		c-1.604-1.598-3.208-3.191-4.791-4.81c-0.146-0.15-0.227-0.476-0.176-0.682C79.391,67.92,79.653,67.784,79.839,67.611z"/>
	<path fill-rule="evenodd" clip-rule="evenodd" fill="#FFFFFF" d="M107.801,75.007c-0.081,0.089-0.203,0.332-0.393,0.415
		c-1.087,0.468-2.188,0.903-3.289,1.337c-0.328,0.127-0.658-0.027-0.78-0.325c-0.124-0.305-0.014-0.66,0.308-0.791
		c1.116-0.467,2.238-0.922,3.368-1.352C107.417,74.136,107.8,74.444,107.801,75.007z"/>
	<path fill-rule="evenodd" clip-rule="evenodd" fill="#FFFFFF" d="M88.434,69.474c-0.146,0.14-0.293,0.369-0.499,0.455
		c-0.292,0.124-0.571-0.009-0.713-0.309c-0.15-0.316-0.274-0.649-0.407-0.979c-0.302-0.744-0.606-1.488-0.901-2.232
		c-0.163-0.413-0.05-0.758,0.278-0.901c0.356-0.154,0.683,0.005,0.862,0.445c0.419,1.02,0.832,2.04,1.243,3.064
		C88.343,69.129,88.369,69.249,88.434,69.474z"/>
	<path fill-rule="evenodd" clip-rule="evenodd" fill="#FFFFFF" d="M77.764,73.996c0.128,0.043,0.26,0.081,0.383,0.132
		c0.99,0.417,1.982,0.835,2.969,1.254c0.446,0.19,0.611,0.508,0.465,0.859c-0.148,0.352-0.493,0.46-0.934,0.275
		c-1.04-0.437-2.078-0.879-3.118-1.323c-0.32-0.134-0.484-0.409-0.362-0.72c0.085-0.215,0.332-0.365,0.505-0.547
		C77.703,73.95,77.733,73.973,77.764,73.996z"/>
	<path fill-rule="evenodd" clip-rule="evenodd" fill="#FFFFFF" d="M77.548,87.516c-0.163-0.188-0.401-0.35-0.479-0.567
		c-0.116-0.318,0.062-0.578,0.385-0.711c0.731-0.299,1.461-0.593,2.194-0.891c0.353-0.144,0.705-0.293,1.06-0.422
		c0.334-0.12,0.653,0.02,0.784,0.318c0.136,0.3,0.032,0.658-0.29,0.794c-1.116,0.466-2.244,0.908-3.368,1.359
		c-0.062,0.024-0.131,0.031-0.196,0.05C77.61,87.471,77.579,87.493,77.548,87.516z"/>
	<path fill-rule="evenodd" clip-rule="evenodd" fill="#FFFFFF" d="M103.84,85.057c0.104,0.03,0.21,0.051,0.311,0.091
		c1.04,0.438,2.08,0.874,3.115,1.322c0.432,0.188,0.595,0.617,0.327,0.915c-0.139,0.152-0.462,0.309-0.618,0.249
		c-1.166-0.448-2.318-0.943-3.463-1.445c-0.287-0.123-0.376-0.434-0.254-0.697c0.094-0.202,0.326-0.338,0.496-0.504
		C103.784,85.011,103.811,85.033,103.84,85.057z"/>
	<path fill-rule="evenodd" clip-rule="evenodd" fill="#FFFFFF" d="M98.501,65.551c0.609,0.009,0.864,0.456,0.66,0.955
		c-0.375,0.906-0.764,1.804-1.146,2.706c-0.064,0.149-0.122,0.304-0.195,0.452c-0.174,0.341-0.498,0.47-0.813,0.333
		c-0.298-0.129-0.451-0.453-0.315-0.786c0.45-1.106,0.912-2.209,1.403-3.303C98.175,65.73,98.414,65.623,98.501,65.551z"/>
</g>
</svg>
